<?xml version="1.0" standalone="no"?>
<!DOCTYPE svg PUBLIC "-//W3C//DTD SVG 20010904//EN"
 "http://www.w3.org/TR/2001/REC-SVG-20010904/DTD/svg10.dtd">
<svg version="1.0" xmlns="http://www.w3.org/2000/svg"
 width="7349.000000pt" height="1491.000000pt" viewBox="0 0 7349.000000 1491.000000"
 preserveAspectRatio="xMidYMid meet">

<g transform="translate(0.000000,1491.000000) scale(0.100000,-0.100000)"
fill="#000000" stroke="none">
<path d="M55740 7475 l0 -6255 3430 0 3430 0 0 560 0 560 -2790 0 -2790 0 0
2310 0 2310 1625 0 1625 0 0 565 0 565 -1625 0 -1625 0 0 2255 0 2255 2790 0
2790 0 0 565 0 565 -3430 0 -3430 0 0 -6255z"/>
<path d="M1180 7450 l0 -6260 3215 0 3215 0 0 560 0 560 -2600 0 -2600 0 0
5700 0 5700 -615 0 -615 0 0 -6260z"/>
<path d="M27735 13704 c-729 -45 -1383 -188 -2004 -436 -1595 -638 -2813
-1822 -3467 -3370 -273 -648 -428 -1307 -475 -2031 -17 -263 -7 -840 20 -1083
80 -733 261 -1358 581 -2009 337 -685 683 -1168 1215 -1700 394 -395 755 -679
1210 -952 746 -449 1556 -737 2390 -852 510 -71 1107 -80 1595 -25 1125 125
2249 584 3155 1288 324 251 685 594 939 891 280 327 565 738 760 1098 l48 87
-679 -1 -678 0 -112 -142 c-615 -780 -1451 -1439 -2265 -1788 -1017 -435
-2269 -486 -3323 -134 -1237 414 -2325 1316 -2983 2475 -356 626 -563 1257
-637 1935 -22 203 -30 587 -16 795 48 709 211 1307 533 1950 276 554 590 993
1013 1415 570 570 1288 1020 2025 1268 1077 363 2318 320 3405 -118 857 -345
1581 -891 2131 -1606 49 -63 109 -145 134 -182 l45 -67 678 0 c372 0 677 2
677 4 0 15 -117 260 -163 343 -298 530 -935 1218 -1561 1687 -845 633 -1892
1063 -2931 1206 -309 42 -453 51 -830 54 -203 2 -397 2 -430 0z"/>
<path d="M47790 13150 l0 -560 1445 0 1445 0 0 -5700 0 -5700 615 0 615 0 0
5700 0 5700 1425 0 1425 0 0 560 0 560 -3485 0 -3485 0 0 -560z"/>
<path d="M14310 13684 c-1170 -68 -2261 -437 -3234 -1092 -896 -603 -1621
-1425 -2100 -2380 -388 -773 -597 -1541 -657 -2416 -15 -223 -6 -819 16 -1021
78 -724 252 -1323 575 -1980 634 -1286 1650 -2297 2959 -2944 727 -359 1423
-558 2231 -638 251 -25 923 -25 1170 0 790 80 1437 255 2134 578 1377 639
2481 1747 3127 3140 387 833 568 1714 546 2649 -24 990 -241 1823 -703 2700
-731 1389 -1955 2453 -3475 3021 -498 186 -1036 307 -1619 365 -157 15 -806
27 -970 18z m855 -1099 c633 -61 1179 -216 1750 -495 226 -111 391 -204 580
-327 1089 -712 1889 -1830 2210 -3088 243 -957 188 -2043 -151 -2957 -430
-1160 -1243 -2125 -2306 -2737 -660 -379 -1365 -601 -2138 -672 -174 -16 -696
-16 -870 0 -779 72 -1442 282 -2130 674 -1376 785 -2345 2193 -2554 3712 -34
241 -41 367 -41 690 0 334 8 456 46 735 138 1008 585 1979 1264 2749 685 776
1668 1369 2654 1601 318 75 592 113 961 134 131 7 569 -4 725 -19z"/>
<path d="M40360 13684 c-905 -53 -1730 -275 -2530 -680 -1235 -624 -2185
-1572 -2800 -2789 -364 -721 -564 -1407 -647 -2225 -22 -221 -25 -938 -5
-1150 59 -611 197 -1165 423 -1703 76 -180 245 -520 349 -702 640 -1115 1585
-1998 2761 -2580 732 -362 1426 -561 2239 -642 249 -25 922 -25 1170 0 988 99
1839 374 2679 864 1307 763 2334 2018 2820 3446 357 1049 408 2261 141 3362
-110 455 -249 827 -481 1285 -312 617 -693 1145 -1174 1625 -508 507 -1064
906 -1710 1225 -740 365 -1429 562 -2265 646 -148 15 -812 27 -970 18z m855
-1099 c633 -61 1182 -217 1750 -495 333 -164 579 -314 860 -525 780 -586 1378
-1376 1740 -2300 253 -644 364 -1325 334 -2044 -37 -896 -293 -1708 -786
-2495 -803 -1282 -2161 -2169 -3643 -2380 -283 -40 -427 -50 -745 -50 -318 0
-463 10 -744 50 -987 140 -1937 590 -2716 1285 -813 725 -1399 1733 -1610
2769 -57 279 -83 528 -92 860 -25 1009 233 1981 758 2855 601 1000 1542 1773
2669 2193 429 159 924 261 1425 292 189 12 604 4 800 -15z"/>
<path d="M64070 7435 l0 -6225 630 0 630 0 0 6225 0 6225 -630 0 -630 0 0
-6225z"/>
<path d="M70657 13618 c-24 -30 -4590 -5910 -4709 -6064 -5 -8 824 -1102 2408
-3178 l2417 -3166 769 0 769 0 -45 58 c-337 431 -4886 6288 -4886 6292 0 3
1080 1373 2400 3044 1321 1672 2403 3043 2406 3048 3 4 -332 8 -745 8 l-750 0
-34 -42z"/>
</g>
</svg>
